<svg xmlns="http://www.w3.org/2000/svg" viewBox="0 0 800 450">
  <defs>
    <linearGradient id="bg" x1="0" y1="0" x2="1" y2="1">
      <stop offset="0" stop-color="#f6f2ff"/>
      <stop offset="1" stop-color="#ecfeff"/>
    </linearGradient>
    <linearGradient id="brand" x1="0" y1="0" x2="1" y2="1">
      <stop offset="0" stop-color="#8b5cf6"/>
      <stop offset=".6" stop-color="#7c3aed"/>
      <stop offset="1" stop-color="#06b6d4"/>
    </linearGradient>
    <linearGradient id="gold" x1="0" y1="0" x2="1" y2="1">
      <stop offset="0" stop-color="#fbbf24"/>
      <stop offset="1" stop-color="#f59e0b"/>
    </linearGradient>
    <linearGradient id="teal" x1="0" y1="0" x2="1" y2="1">
      <stop offset="0" stop-color="#2dd4bf"/>
      <stop offset="1" stop-color="#0d9488"/>
    </linearGradient>
  </defs>
  <rect width="800" height="450" fill="url(#bg)"/>
  <g opacity=".5">
    <circle cx="110" cy="70" r="140" fill="#ede9fe"/>
    <circle cx="720" cy="400" r="150" fill="#cffafe"/>
  </g>
  <g transform="translate(180 60)">
    <rect width="260" height="200" rx="40" fill="#fff" stroke="#e9e4fa" stroke-width="3"/>
    <text x="130" y="150" font-family="Georgia, serif" font-weight="700" font-size="96" fill="url(#brand)" text-anchor="middle">π</text>
    <rect x="60" y="160" width="140" height="8" rx="4" fill="#ede9fe"/>
  </g>
  <g transform="translate(500 90)">
    <rect width="150" height="150" rx="24" fill="#fff" stroke="#e9e4fa" stroke-width="3"/>
    <path d="M30 120V60h90v60" fill="none" stroke="url(#teal)" stroke-width="8" stroke-linecap="round" stroke-linejoin="round"/>
    <path d="M46 92l16 16 22-24 26 28" fill="none" stroke="#7c3aed" stroke-width="6" stroke-linecap="round" stroke-linejoin="round"/>
    <path d="M30 140h90" stroke="#c4b5fd" stroke-width="5" stroke-linecap="round"/>
  </g>
  <g transform="translate(560 290)">
    <rect width="150" height="100" rx="20" fill="#fff" stroke="#e9e4fa" stroke-width="2.5"/>
    <rect x="20" y="18" width="110" height="9" rx="4.5" fill="#ede9fe"/>
    <rect x="20" y="38" width="80" height="9" rx="4.5" fill="#e9e4fa"/>
    <rect x="20" y="70" width="110" height="12" rx="6" fill="#f5f3ff" stroke="#e9e4fa" stroke-width="2"/>
    <rect x="28" y="78" width="50" height="4" rx="2" fill="#8b5cf6"/>
  </g>
  <g transform="translate(130 310)">
    <rect width="140" height="90" rx="18" fill="#fff" stroke="#e9e4fa" stroke-width="2.5"/>
    <rect x="20" y="16" width="100" height="9" rx="4.5" fill="#ede9fe"/>
    <rect x="20" y="36" width="70" height="9" rx="4.5" fill="#e9e4fa"/>
    <circle cx="112" cy="72" r="6" fill="url(#gold)"/>
  </g>
</svg>
